REM DIRINDEX 1\4,1\2\5,1\2\6,1\3\7,1\3\8
REM DIRNAME folder01,folder02,folder03,folder04,folder05,folder06,folder07,folder08
TITLE ""
FILE "027_Day14_Check2_Phrases.mp3" MP3
  TRACK 01 AUDIO
    TITLE "0:"
    INDEX 01 00:00:00
  TRACK 02 AUDIO
    TITLE "4:cjc124_0859"
    INDEX 01 00:00:31
  TRACK 03 AUDIO
    TITLE "0:"
    INDEX 01 00:01:44
  TRACK 04 AUDIO
    TITLE "5:cjc124_0860"
    INDEX 01 00:02:00
  TRACK 05 AUDIO
    TITLE "0:"
    INDEX 01 00:03:72
  TRACK 06 AUDIO
    TITLE "6:cjc124_0861"
    INDEX 01 00:04:13
  TRACK 07 AUDIO
    TITLE "0:"
    INDEX 01 00:05:67
  TRACK 08 AUDIO
    TITLE "5:cjc124_0862"
    INDEX 01 00:06:30
  TRACK 09 AUDIO
    TITLE "0:"
    INDEX 01 00:08:07
  TRACK 10 AUDIO
    TITLE "6:cjc124_0863"
    INDEX 01 00:08:24
  TRACK 11 AUDIO
    TITLE "0:"
    INDEX 01 00:10:02
  TRACK 12 AUDIO
    TITLE "5:cjc124_0864"
    INDEX 01 00:10:41
  TRACK 13 AUDIO
    TITLE "0:"
    INDEX 01 00:11:66
  TRACK 14 AUDIO
    TITLE "6:cjc124_0865"
    INDEX 01 00:12:09
  TRACK 15 AUDIO
    TITLE "0:"
    INDEX 01 00:13:41
  TRACK 16 AUDIO
    TITLE "5:cjc124_0866"
    INDEX 01 00:14:04
  TRACK 17 AUDIO
    TITLE "0:"
    INDEX 01 00:15:32
  TRACK 18 AUDIO
    TITLE "6:cjc124_0867"
    INDEX 01 00:15:50
  TRACK 19 AUDIO
    TITLE "0:"
    INDEX 01 00:17:12
  TRACK 20 AUDIO
    TITLE "5:cjc124_0868"
    INDEX 01 00:17:53
  TRACK 21 AUDIO
    TITLE "0:"
    INDEX 01 00:19:67
  TRACK 22 AUDIO
    TITLE "6:cjc124_0869"
    INDEX 01 00:20:10
  TRACK 23 AUDIO
    TITLE "0:"
    INDEX 01 00:21:68
  TRACK 24 AUDIO
    TITLE "5:cjc124_0870"
    INDEX 01 00:22:30
  TRACK 25 AUDIO
    TITLE "0:"
    INDEX 01 00:24:10
  TRACK 26 AUDIO
    TITLE "6:cjc124_0871"
    INDEX 01 00:24:27
  TRACK 27 AUDIO
    TITLE "0:"
    INDEX 01 00:25:70
  TRACK 28 AUDIO
    TITLE "5:cjc124_0872"
    INDEX 01 00:26:34
  TRACK 29 AUDIO
    TITLE "0:"
    INDEX 01 00:28:43
  TRACK 30 AUDIO
    TITLE "6:cjc124_0873"
    INDEX 01 00:28:60
  TRACK 31 AUDIO
    TITLE "0:"
    INDEX 01 00:30:50
  TRACK 32 AUDIO
    TITLE "5:cjc124_0874"
    INDEX 01 00:31:18
  TRACK 33 AUDIO
    TITLE "0:"
    INDEX 01 00:32:39
  TRACK 34 AUDIO
    TITLE "6:cjc124_0875"
    INDEX 01 00:32:66
  TRACK 35 AUDIO
    TITLE "0:"
    INDEX 01 00:34:51
  TRACK 36 AUDIO
    TITLE "5:cjc124_0876"
    INDEX 01 00:35:14
  TRACK 37 AUDIO
    TITLE "0:"
    INDEX 01 00:37:61
  TRACK 38 AUDIO
    TITLE "6:cjc124_0877"
    INDEX 01 00:38:02
  TRACK 39 AUDIO
    TITLE "0:"
    INDEX 01 00:40:09
  TRACK 40 AUDIO
    TITLE "5:cjc124_0878"
    INDEX 01 00:40:50
  TRACK 41 AUDIO
    TITLE "0:"
    INDEX 01 00:43:01
  TRACK 42 AUDIO
    TITLE "6:cjc124_0879"
    INDEX 01 00:43:19
  TRACK 43 AUDIO
    TITLE "0:"
    INDEX 01 00:45:14
  TRACK 44 AUDIO
    TITLE "5:cjc124_0880"
    INDEX 01 00:45:53
  TRACK 45 AUDIO
    TITLE "0:"
    INDEX 01 00:47:11
  TRACK 46 AUDIO
    TITLE "6:cjc124_0881"
    INDEX 01 00:47:30
  TRACK 47 AUDIO
    TITLE "0:"
    INDEX 01 00:48:53
  TRACK 48 AUDIO
    TITLE "5:cjc124_0882"
    INDEX 01 00:49:16
  TRACK 49 AUDIO
    TITLE "0:"
    INDEX 01 00:51:20
  TRACK 50 AUDIO
    TITLE "6:cjc124_0883"
    INDEX 01 00:51:36
  TRACK 51 AUDIO
    TITLE "0:"
    INDEX 01 00:53:45
  TRACK 52 AUDIO
    TITLE "5:cjc124_0884"
    INDEX 01 00:54:09
  TRACK 53 AUDIO
    TITLE "0:"
    INDEX 01 00:56:08
  TRACK 54 AUDIO
    TITLE "6:cjc124_0885"
    INDEX 01 00:56:25
  TRACK 55 AUDIO
    TITLE "0:"
    INDEX 01 00:58:11
  TRACK 56 AUDIO
    TITLE "5:cjc124_0886"
    INDEX 01 00:58:52
  TRACK 57 AUDIO
    TITLE "0:"
    INDEX 01 01:00:39
  TRACK 58 AUDIO
    TITLE "6:cjc124_0887"
    INDEX 01 01:00:55
  TRACK 59 AUDIO
    TITLE "0:"
    INDEX 01 01:02:40
  TRACK 60 AUDIO
    TITLE "5:cjc124_0888"
    INDEX 01 01:03:02
  TRACK 61 AUDIO
    TITLE "0:"
    INDEX 01 01:04:58
  TRACK 62 AUDIO
    TITLE "6:cjc124_0889"
    INDEX 01 01:04:74
  TRACK 63 AUDIO
    TITLE "0:"
    INDEX 01 01:06:18
  TRACK 64 AUDIO
    TITLE "5:cjc124_0890"
    INDEX 01 01:06:55
  TRACK 65 AUDIO
    TITLE "0:"
    INDEX 01 01:09:01
  TRACK 66 AUDIO
    TITLE "6:cjc124_0891"
    INDEX 01 01:09:18
  TRACK 67 AUDIO
    TITLE "0:"
    INDEX 01 01:10:45
